<svg version="1" xmlns="http://www.w3.org/2000/svg" width="2933.333" height="2933.333" viewBox="0 0 2200.000000 2200.000000"><path d="M408.6 712.9c-.3.4-3.4 1.1-6.8 1.4-7.5.8-21.2 4.9-28.8 8.7-6 3-5.4 2.6-29 16.2-9.1 5.3-19.9 11.5-24 13.9-4.1 2.3-10.3 6-13.7 8.1-3.4 2.1-6.5 3.8-6.8 3.8-.2 0-3.4 1.8-7 4s-6.7 4-7 4c-.2 0-4.5 2.5-9.5 5.5s-9.3 5.5-9.6 5.5c-.2 0-2.1 1.1-4.2 2.3-2 1.3-5.7 3.5-8.2 4.9-2.5 1.4-10.5 6-17.9 10.3-7.4 4.2-15.1 8.6-17 9.7-2 1.1-8.8 5.1-15.1 8.8-10.3 6.1-40 23.2-49 28.3-12.1 6.8-17.5 10.4-19.8 13.5l-2.7 3.5-.3 82.5-.2 82.4 2.7 5c4.5 8.3 19.9 21 36.3 30 4.8 2.6 38.3 21.9 53.5 30.8 5 2.9 11 6.4 13.5 7.8 2.5 1.4 6.1 3.5 8 4.7 1.9 1.2 6 3.6 9 5.3 3 1.6 10.6 6 16.9 9.6 6.2 3.6 11.5 6.6 11.7 6.6.2 0 3.2 1.7 6.6 3.8 3.5 2.1 8.3 5 10.8 6.4 2.5 1.4 9.7 5.5 16 9.1 13.2 7.6 23.9 11.8 36 14.3 7.3 1.5 14.3 1.8 49 1.9 44.3 0 45.3.1 56.5 6 3.3 1.7 14.8 8.2 25.5 14.5 10.7 6.2 21.8 12.5 24.5 14 2.8 1.5 10.8 6.2 17.9 10.4 7 4.2 13 7.6 13.2 7.6.2 0 1.7.8 3.5 1.9l3 1.9-11.8 6.9c-6.5 3.8-13.1 7.5-14.8 8.3-1.6.8-7 3.8-11.8 6.7-4.8 2.9-9 5.3-9.2 5.3-.3 0-3.4 1.8-7 4s-6.7 4-7 4c-.2 0-3.7 2-7.7 4.3-4 2.4-12 7.1-17.8 10.4-5.8 3.3-17.1 9.9-25.2 14.7-8.1 4.7-15.2 8.6-15.8 8.6-1.3 0-3.9-1.4-22.9-12.5-7.4-4.2-14.9-8.5-16.5-9.5-1.7-.9-8.7-5-15.6-9s-14.5-8.4-16.9-9.7c-2.5-1.3-9.7-5.5-16-9.2-11-6.5-26.8-15.7-35.6-20.7-2.2-1.2-9.2-5.2-15.5-8.8-10.3-5.9-12.1-6.6-17-6.6-5.1 0-6.6.7-19.5 8.1-7.7 4.4-16.5 9.4-19.5 11.1-3 1.7-5.9 3.4-6.5 3.8-.9.7-15.8 9.4-24.1 14-1.6 1-9 5.2-16.4 9.5-7.4 4.3-14.8 8.5-16.5 9.5-1.7 1-9.1 5.2-16.5 9.5s-15 8.6-16.9 9.7c-3.1 1.8-10.3 6-17.9 10.5-1.2.8-2 1.7-1.8 2.2.5.7 9.8 6.3 20.1 12.1 1.7 1 9.2 5.3 16.6 9.5 7.4 4.3 20.8 12.1 29.9 17.3 9.1 5.2 18.3 10.5 20.5 11.8 2.2 1.3 6.9 4 10.5 6 3.6 2.1 9.3 5.4 12.7 7.5 3.4 2.2 6.5 3.9 6.7 3.9.3 0 4.6 2.5 9.6 5.5s9.3 5.5 9.6 5.5c.2 0 2.1 1.1 4.2 2.3 2 1.3 5.7 3.5 8.2 4.9 2.5 1.4 10.5 6 17.9 10.3 7.4 4.2 14.9 8.5 16.5 9.5 6.1 3.4 23.3 13.4 34.6 20 6.3 3.7 13.1 7.7 15.1 8.8 1.9 1.1 9.5 5.4 16.7 9.6 20.8 12 28.1 14.9 45.7 18.1 10.2 1.9 21.8 1.9 32 0 20.7-3.7 24.1-5.3 73.5-34 7.4-4.3 15.5-8.9 18-10.3 2.5-1.4 5-2.8 5.5-3.2.6-.4 3.5-2.1 6.5-3.8 3-1.7 10.7-6 17-9.7 6.3-3.7 17.1-10 24-14 6.9-3.9 18.6-10.7 26-15 7.4-4.3 15.5-8.9 18-10.3 2.5-1.4 5-2.8 5.5-3.2.6-.4 3-1.9 5.5-3.2 18.2-10.1 43.7-24.9 49.5-28.7 10.4-6.9 16.8-13.6 19.4-20.5l2.1-5.8-.2-80.6c-.3-79.4-.3-80.8-2.4-84.2-1.1-1.9-3.8-4.7-6-6.1-3.7-2.5-25.8-15.4-35.4-20.7-2.5-1.4-5.6-3.3-7-4.2-1.4-.9-4.5-2.8-7-4.2-5.3-2.9-31.9-18.2-50.9-29.3-7.4-4.2-14.9-8.5-16.6-9.5-1.7-.9-8.7-5-15.5-9-6.9-4-14.5-8.4-17-9.8-2.5-1.3-7-3.9-10-5.7-3-1.8-8.9-5.3-13-7.7-6.4-3.8-16-8.6-23.5-11.8-1.1-.5-4.5-1.6-7.5-2.4-3-.8-7.3-2-9.5-2.7-2.8-.8-16.7-1.3-46.5-1.6-53.2-.4-48.9.5-76.5-15.8-7.7-4.6-15.6-9.2-17.5-10.2-1.9-1.1-7.8-4.5-13.2-7.6-5.3-3-13.4-7.6-18-10-4.5-2.5-11.4-6.3-15.2-8.5l-6.8-3.9 2.8-1.5c2.6-1.3 9.3-5.1 38.4-22.1 10.6-6.1 13.4-7.8 21.8-12.5 3.7-2.1 12.8-7.4 20.2-11.7 7.4-4.3 15.3-8.8 17.5-10.1 2.2-1.2 9.4-5.4 16-9.2l12-7 5 2.8c2.8 1.5 10.6 6 17.5 10s14.3 8.3 16.5 9.5c2.2 1.2 12.8 7.3 23.5 13.5s21.5 12.4 24 13.8c2.5 1.4 7.3 4.3 10.8 6.4 3.4 2.1 6.4 3.8 6.7 3.8.2 0 3.9 2.1 8.2 4.7 11 6.7 16.5 8.4 21.7 6.9 2.3-.7 11.8-5.7 21.1-11.1 9.4-5.4 21.3-12.3 26.5-15.3 5.2-3 11.1-6.4 13-7.5 1.9-1 8.7-5 15.1-8.8 6.3-3.7 13.5-7.9 16-9.2 2.4-1.3 13.2-7.5 23.9-13.7 10.7-6.2 23.1-13.4 27.4-15.9 4.4-2.5 8.1-5.1 8.3-5.6.2-.6-5-4.2-11.4-7.9-6.5-3.8-19.1-11.1-28.1-16.2-8.9-5.2-18-10.5-20.2-11.9-2.2-1.4-4.1-2.5-4.3-2.5-.4 0-7-3.8-30.7-17.5-7.4-4.3-20.5-11.9-29-16.8s-16.9-9.7-18.6-10.7c-1.6-1-9.1-5.3-16.5-9.5-14.7-8.6-44.4-25.6-49.9-28.8-1.9-1-8.7-4.9-15-8.6-19.9-11.6-32.5-16.6-44.8-17.8-3.4-.3-6.5-1-6.8-1.4-.3-.5-4.5-.9-9.4-.9s-9.1.4-9.4.9zM754.4 728.3c-.2.7-.3 32.4-.2 70.4l.3 69.1 3.1 3.8c1.6 2.1 4.6 4.3 6.5 5 2.6 1 25.3 1.3 98.4 1.3 52.3.1 95.9.4 97 .7 2 .5 2 1.3 1.8 283.4-.2 232.5 0 283 1.1 283.9.9.8 24 1 78.7.9l77.4-.3v-283.8-283.9c0-.1 44.4-.5 98.7-.8 98.1-.5 98.7-.5 101.5-2.6 1.5-1.1 3.8-3.6 5.1-5.4l2.2-3.3V727h-285.5c-232.4 0-285.7.2-286.1 1.3zM1402.9 727.2c-.7 1.6-.3 717.6.4 718.5 1.5 2 142.5 1.9 147-.1 4.7-2 7.4-5.5 8.7-11.1.8-3.6.9-63 .4-221l-.7-215.9 2.4 1.5c1.3.9 5.1 3.1 8.4 4.9 3.3 1.8 7.6 4.3 9.5 5.5 1.9 1.2 5.5 3.3 8 4.7 2.5 1.4 10.5 6 17.9 10.3 7.4 4.2 14.9 8.5 16.5 9.5 1.7.9 12.1 6.9 23.1 13.2 28.5 16.4 32.8 18.4 50.8 22.7 7 1.6 30.8 1.4 39.7-.4 15.4-3.2 22-6.2 51.5-23.3 21.9-12.7 31.9-18.4 35.1-20.2 1.6-1 9.1-5.3 16.5-9.5 7.4-4.3 15.4-8.9 17.8-10.3 2.4-1.3 6.4-3.7 9-5.3l4.6-3 .5 219.9c.5 210.7.6 219.9 2.3 222.6 1 1.5 3.7 3.6 6 4.7 4 1.8 7.7 1.9 76 1.9h71.7v-360c0-198-.3-360-.6-360-.4 0-4 2-8.1 4.5-4 2.5-7.6 4.5-7.8 4.5-.3 0-3.4 1.8-7 4s-6.7 4-7 4c-.2 0-3.7 2-7.7 4.3-20 12-24.7 14.7-25.3 14.7-.3 0-2.4 1.2-4.7 2.6-2.2 1.4-8.4 5.1-13.7 8.2-5.3 3-13.9 8-19.1 11-5.2 3-10.8 6.3-12.5 7.2-4.4 2.5-41.1 23.6-55.5 32-6.9 4-19.7 11.4-28.5 16.5-8.8 5-22 12.7-29.4 17-7.4 4.2-14.9 8.5-16.5 9.5-2.9 1.6-8.5 4.8-32.3 18.7-5.4 3.1-14.1 8.1-19.3 11.1-5.2 3.1-11.1 6.4-13 7.4l-3.5 1.9-8.5-4.9c-4.7-2.7-13-7.5-18.5-10.7-5.5-3.2-12-6.9-14.5-8.3-2.5-1.4-6.2-3.6-8.2-4.9-2.1-1.2-4-2.3-4.3-2.3-.2 0-3.3-1.7-6.7-3.8-3.5-2.1-8.3-5-10.8-6.4-2.5-1.4-10.5-6-17.9-10.3-7.4-4.2-14.9-8.5-16.5-9.5-1.7-1-8.7-5-15.6-9s-13.2-7.7-14-8.1c-.8-.4-5.7-3.3-10.7-6.3-5.1-3.1-9.4-5.6-9.6-5.6-.4 0-6.5-3.5-30.7-17.5-7.4-4.3-15.5-8.9-18-10.3-2.5-1.4-4.9-2.8-5.5-3.2-.5-.5-5.3-3.3-10.5-6.2-5.2-3-17.1-9.9-26.5-15.3-9.3-5.4-18.4-10.6-20.1-11.5-1.6-1-9.1-5.3-16.5-9.6-25.9-15-27.6-16-28-15.2z"/></svg>